<?xml version="1.0" standalone="no"?>
<!DOCTYPE svg PUBLIC "-//W3C//DTD SVG 20010904//EN"
 "http://www.w3.org/TR/2001/REC-SVG-20010904/DTD/svg10.dtd">
<svg version="1.0" xmlns="http://www.w3.org/2000/svg"
 width="16.000000pt" height="16.000000pt" viewBox="0 0 16.000000 16.000000"
 preserveAspectRatio="xMidYMid meet">
<metadata>
Created by potrace 1.11, written by Peter Selinger 2001-2013
</metadata>
<g transform="translate(0.000000,16.000000) scale(0.006154,-0.006154)"
fill="#000000" stroke="none">
<path d="M0 1300 l0 -1300 1300 0 1300 0 0 1300 0 1300 -1300 0 -1300 0 0
-1300z m1480 880 c84 -13 177 -38 265 -70 l70 -26 0 -209 0 -210 -117 -3 -118
-3 0 125 0 124 -36 12 c-54 18 -200 28 -284 19 -143 -16 -251 -94 -312 -227
-101 -222 -85 -640 33 -831 128 -209 412 -242 754 -86 42 19 78 35 81 35 2 0
4 -55 4 -123 l0 -123 -57 -28 c-84 -42 -186 -75 -282 -91 -344 -61 -628 79
-771 376 -116 243 -130 598 -34 874 72 206 240 377 432 440 106 34 249 44 372
25z"/>
</g>
</svg>
